<svg xmlns="http://www.w3.org/2000/svg">
  <symbol fill="none" viewBox="0 0 18 20" id="icon-account">
    <path d="M8.75 10C5.97656 10 3.75 7.77344 3.75 5C3.75 2.26562 5.97656 0 8.75 0C11.4844 0 13.75 2.26562 13.75 5C13.75 7.77344 11.4844 10 8.75 10ZM10.7031 11.875C14.4531 11.875 17.5 14.9219 17.5 18.6719C17.5 19.4141 16.875 20 16.1328 20H1.32812C0.585938 20 0 19.4141 0 18.6719C0 14.9219 3.00781 11.875 6.75781 11.875H10.7031Z" fill="currentColor"></path>
  </symbol>
  <symbol fill="none" viewBox="0 0 18 20" id="icon-cart">
    <path d="M4.375 4.375C4.375 1.99219 6.32812 0 8.75 0C11.1328 0 13.125 1.99219 13.125 4.375V6.25H15.625C16.6406 6.25 17.5 7.10938 17.5 8.125V16.25C17.5 18.3203 15.8203 20 13.75 20H3.75C1.64062 20 0 18.3203 0 16.25V8.125C0 7.10938 0.820312 6.25 1.875 6.25H4.375V4.375ZM6.25 6.25H11.25V4.375C11.25 3.00781 10.1172 1.875 8.75 1.875C7.34375 1.875 6.25 3.00781 6.25 4.375V6.25ZM5.3125 10C5.82031 10 6.25 9.60938 6.25 9.0625C6.25 8.55469 5.82031 8.125 5.3125 8.125C4.76562 8.125 4.375 8.55469 4.375 9.0625C4.375 9.60938 4.76562 10 5.3125 10ZM12.1875 8.125C11.6406 8.125 11.25 8.55469 11.25 9.0625C11.25 9.60938 11.6406 10 12.1875 10C12.6953 10 13.125 9.60938 13.125 9.0625C13.125 8.55469 12.6953 8.125 12.1875 8.125Z" fill="currentColor"></path>
  </symbol>
  <symbol fill="none" viewBox="0 0 20 18" id="icon-favour">
    <path d="M9.53125 1.83594L9.96094 2.30469L10.4297 1.875C11.7188 0.585938 13.5547 0 15.3125 0.3125C18.0078 0.742188 20 3.08594 20 5.82031V6.01562C20 7.65625 19.2969 9.21875 18.125 10.3125L11.0547 16.9141C10.7812 17.1875 10.3906 17.3047 10 17.3047C9.57031 17.3047 9.17969 17.1875 8.90625 16.9141L1.83594 10.3125C0.664062 9.21875 0 7.65625 0 6.01562V5.82031C0 3.08594 1.95312 0.742188 4.64844 0.3125C6.40625 0 8.24219 0.585938 9.53125 1.83594C9.53125 1.875 9.49219 1.83594 9.53125 1.83594ZM9.96094 4.96094L8.20312 3.16406C7.34375 2.34375 6.13281 1.95312 4.96094 2.14844C3.16406 2.46094 1.875 3.98438 1.875 5.82031V6.01562C1.875 7.14844 2.30469 8.20312 3.125 8.94531L10 15.3516L16.8359 8.94531C17.6562 8.20312 18.125 7.14844 18.125 6.01562V5.82031C18.125 3.98438 16.7969 2.46094 15 2.14844C13.8281 1.95312 12.6172 2.34375 11.7578 3.16406L9.96094 4.96094Z" fill="currentColor"></path>
  </symbol>
  <symbol fill="none" viewBox="0 0 11 20" id="icon-fb">
    <path d="M10.0391 11.25H7.10938V20H3.20312V11.25H0V7.65625H3.20312V4.88281C3.20312 1.75781 5.07812 0 7.92969 0C9.29688 0 10.7422 0.273438 10.7422 0.273438V3.35938H9.14062C7.57812 3.35938 7.10938 4.29688 7.10938 5.3125V7.65625H10.5859L10.0391 11.25Z" fill="currentColor"></path>
  </symbol>
  <symbol fill="none" viewBox="0 0 15 13" id="icon-filter">
    <path d="M0.164062 0.628906C0.355469 0.246094 0.738281 0 1.17578 0H12.9883C13.3984 0 13.7812 0.246094 13.9727 0.628906C14.1367 1.01172 14.082 1.47656 13.8086 1.80469L8.83203 7.90234V11.375C8.83203 11.7305 8.64062 12.0312 8.33984 12.168C8.03906 12.3047 7.68359 12.2773 7.41016 12.0859L5.66016 10.7734C5.44141 10.6094 5.33203 10.3633 5.33203 10.0625V7.90234L0.328125 1.80469C0.0546875 1.47656 0 1.01172 0.164062 0.628906Z" fill="currentColor"></path>
  </symbol>
  <symbol fill="none" viewBox="0 0 18 18" id="icon-inst">
    <path d="M8.78906 4.25781C11.25 4.25781 13.2812 6.28906 13.2812 8.75C13.2812 11.25 11.25 13.2422 8.78906 13.2422C6.28906 13.2422 4.29688 11.25 4.29688 8.75C4.29688 6.28906 6.28906 4.25781 8.78906 4.25781ZM8.78906 11.6797C10.3906 11.6797 11.6797 10.3906 11.6797 8.75C11.6797 7.14844 10.3906 5.85938 8.78906 5.85938C7.14844 5.85938 5.85938 7.14844 5.85938 8.75C5.85938 10.3906 7.1875 11.6797 8.78906 11.6797ZM14.4922 4.10156C14.4922 3.51562 14.0234 3.04688 13.4375 3.04688C12.8516 3.04688 12.3828 3.51562 12.3828 4.10156C12.3828 4.6875 12.8516 5.15625 13.4375 5.15625C14.0234 5.15625 14.4922 4.6875 14.4922 4.10156ZM17.4609 5.15625C17.5391 6.60156 17.5391 10.9375 17.4609 12.3828C17.3828 13.7891 17.0703 15 16.0547 16.0547C15.0391 17.0703 13.7891 17.3828 12.3828 17.4609C10.9375 17.5391 6.60156 17.5391 5.15625 17.4609C3.75 17.3828 2.53906 17.0703 1.48438 16.0547C0.46875 15 0.15625 13.7891 0.078125 12.3828C0 10.9375 0 6.60156 0.078125 5.15625C0.15625 3.75 0.46875 2.5 1.48438 1.48438C2.53906 0.46875 3.75 0.15625 5.15625 0.078125C6.60156 0 10.9375 0 12.3828 0.078125C13.7891 0.15625 15.0391 0.46875 16.0547 1.48438C17.0703 2.5 17.3828 3.75 17.4609 5.15625ZM15.5859 13.9062C16.0547 12.7734 15.9375 10.0391 15.9375 8.75C15.9375 7.5 16.0547 4.76562 15.5859 3.59375C15.2734 2.85156 14.6875 2.22656 13.9453 1.95312C12.7734 1.48438 10.0391 1.60156 8.78906 1.60156C7.5 1.60156 4.76562 1.48438 3.63281 1.95312C2.85156 2.26562 2.26562 2.85156 1.95312 3.59375C1.48438 4.76562 1.60156 7.5 1.60156 8.75C1.60156 10.0391 1.48438 12.7734 1.95312 13.9062C2.26562 14.6875 2.85156 15.2734 3.63281 15.5859C4.76562 16.0547 7.5 15.9375 8.78906 15.9375C10.0391 15.9375 12.7734 16.0547 13.9453 15.5859C14.6875 15.2734 15.3125 14.6875 15.5859 13.9062Z" fill="currentColor"></path>
  </symbol>
  <symbol fill="none" viewBox="0 0 17 29" id="icon-left">
    <path d="M14.25 28.1875C13.6875 28.1875 13.1875 28 12.8125 27.625L0.8125 15.625C0 14.875 0 13.5625 0.8125 12.8125L12.8125 0.8125C13.5625 0 14.875 0 15.625 0.8125C16.4375 1.5625 16.4375 2.875 15.625 3.625L5.0625 14.1875L15.625 24.8125C16.4375 25.5625 16.4375 26.875 15.625 27.625C15.25 28 14.75 28.1875 14.25 28.1875Z" fill="currentColor"></path>
  </symbol>
  <symbol fill="none" viewBox="0 0 18 18" id="icon-li">
    <path d="M3.90625 18.0078H0.273438V6.32812H3.90625V18.0078ZM2.07031 4.76562C0.9375 4.76562 0 3.78906 0 2.61719C0 1.01562 1.71875 0 3.125 0.820312C3.78906 1.17188 4.17969 1.875 4.17969 2.61719C4.17969 3.78906 3.24219 4.76562 2.07031 4.76562ZM17.4609 18.0078H13.8672V12.3438C13.8672 10.9766 13.8281 9.25781 11.9531 9.25781C10.0781 9.25781 9.80469 10.7031 9.80469 12.2266V18.0078H6.17188V6.32812H9.64844V7.92969H9.6875C10.1953 7.03125 11.3672 6.05469 13.125 6.05469C16.7969 6.05469 17.5 8.47656 17.5 11.6016V18.0078H17.4609Z" fill="currentColor"></path>
  </symbol>
  <symbol fill="none" viewBox="0 0 17 29" id="icon-right">
    <path d="M2.25 28.1875C1.6875 28.1875 1.1875 28 0.8125 27.625C0 26.875 0 25.5625 0.8125 24.8125L11.375 14.1875L0.8125 3.625C0 2.875 0 1.5625 0.8125 0.8125C1.5625 0 2.875 0 3.625 0.8125L15.625 12.8125C16.4375 13.5625 16.4375 14.875 15.625 15.625L3.625 27.625C3.25 28 2.75 28.1875 2.25 28.1875Z" fill="currentColor"></path>
  </symbol>
  <symbol fill="none" viewBox="0 0 21 21" id="icon-search">
    <path d="M20.1562 17.9297C20.7422 18.5547 20.7422 19.5312 20.1562 20.1562C19.5312 20.7422 18.5547 20.7422 17.9297 20.1562L13.2812 15.4688C11.6797 16.5234 9.72656 17.0703 7.61719 16.7969C4.02344 16.2891 1.13281 13.3594 0.664062 9.80469C0 4.49219 4.49219 0 9.80469 0.664062C13.3594 1.13281 16.2891 4.02344 16.7969 7.61719C17.0703 9.72656 16.5234 11.6797 15.4688 13.2422L20.1562 17.9297ZM3.71094 8.71094C3.71094 11.4844 5.9375 13.7109 8.71094 13.7109C11.4453 13.7109 13.7109 11.4844 13.7109 8.71094C13.7109 5.97656 11.4453 3.71094 8.71094 3.71094C5.9375 3.71094 3.71094 5.97656 3.71094 8.71094Z" fill="currentColor"></path>
  </symbol>

  <symbol fill="none" viewBox="0 0 21 21" id="icon-search1">
    <path d="M20.1562 17.9297C20.7422 18.5547 20.7422 19.5312 20.1562 20.1562C19.5312 20.7422 18.5547 20.7422 17.9297 20.1562L13.2812 15.4688C11.6797 16.5234 9.72656 17.0703 7.61719 16.7969C4.02344 16.2891 1.13281 13.3594 0.664062 9.80469C0 4.49219 4.49219 0 9.80469 0.664062C13.3594 1.13281 16.2891 4.02344 16.7969 7.61719C17.0703 9.72656 16.5234 11.6797 15.4688 13.2422L20.1562 17.9297ZM3.71094 8.71094C3.71094 11.4844 5.9375 13.7109 8.71094 13.7109C11.4453 13.7109 13.7109 11.4844 13.7109 8.71094C13.7109 5.97656 11.4453 3.71094 8.71094 3.71094C5.9375 3.71094 3.71094 5.97656 3.71094 8.71094Z" fill="currentColor"></path>
  </symbol>

  <symbol fill="none" viewBox="0 0 17 17" id="icon-submit">
    <path d="M15.6875 0.1875C15.9375 0.34375 16.0625 0.625 15.9688 0.90625L13.9688 14.4062C13.9375 14.625 13.8125 14.8438 13.5938 14.9375C13.5 15 13.375 15.0625 13.25 15.0625C13.125 15.0625 13.0312 15.0312 12.9375 15L9.875 13.6875L6.40625 15.9375C6.28125 16 6.125 16.0312 6 16.0312C5.90625 16.0312 5.78125 16 5.65625 15.9688C5.40625 15.8125 5.28125 15.5625 5.28125 15.2812V11.75L0.46875 9.75C0.21875 9.625 0.03125 9.375 0.03125 9.09375C0 8.8125 0.15625 8.53125 0.40625 8.40625L14.9062 0.15625C15.1562 0 15.4688 0.03125 15.6875 0.1875ZM11.5625 3.78125L2.46875 8.9375L5.71875 10.3125L11.5625 3.78125ZM6.75 13.9062L8.1875 13L6.75 12.375V13.9062ZM12.6562 13.2188L14.1562 3.125L7.15625 10.9062L12.6562 13.2188Z" fill="currentColor"></path>
  </symbol>
  <symbol fill="none" viewBox="0 0 20 17" id="icon-tw">
    <path d="M17.9297 4.02344C17.9297 4.21875 17.9297 4.375 17.9297 4.57031C17.9297 10 13.8281 16.2109 6.28906 16.2109C3.94531 16.2109 1.79688 15.5469 0 14.375C0.3125 14.4141 0.625 14.4531 0.976562 14.4531C2.89062 14.4531 4.64844 13.7891 6.05469 12.6953C4.25781 12.6562 2.73438 11.4844 2.22656 9.84375C2.5 9.88281 2.73438 9.92188 3.00781 9.92188C3.35938 9.92188 3.75 9.84375 4.0625 9.76562C2.1875 9.375 0.78125 7.73438 0.78125 5.74219V5.70312C1.32812 6.01562 1.99219 6.17188 2.65625 6.21094C1.52344 5.46875 0.820312 4.21875 0.820312 2.8125C0.820312 2.03125 1.01562 1.32812 1.36719 0.742188C3.39844 3.20312 6.44531 4.84375 9.84375 5.03906C9.76562 4.72656 9.72656 4.41406 9.72656 4.10156C9.72656 1.83594 11.5625 0 13.8281 0C15 0 16.0547 0.46875 16.8359 1.28906C17.7344 1.09375 18.6328 0.742188 19.4141 0.273438C19.1016 1.25 18.4766 2.03125 17.6172 2.53906C18.4375 2.46094 19.2578 2.22656 19.9609 1.91406C19.4141 2.73438 18.7109 3.4375 17.9297 4.02344Z" fill="currentColor"></path>
  </symbol>
  <symbol fill="none" viewBox="0 0 11 13" id="icon-up">
    <path d="M10.3359 5.96094C10.1719 6.125 9.95312 6.20703 9.73438 6.20703C9.48828 6.20703 9.26953 6.125 9.10547 5.96094L6.23438 3.08984V11.457C6.23438 11.9492 5.82422 12.332 5.35938 12.332C4.92188 12.332 4.48438 11.9492 4.48438 11.457V3.08984L1.58594 5.96094C1.25781 6.31641 0.683594 6.31641 0.355469 5.96094C0 5.63281 0 5.05859 0.355469 4.73047L4.73047 0.355469C5.05859 0 5.63281 0 5.96094 0.355469L10.3359 4.73047C10.6914 5.05859 10.6914 5.63281 10.3359 5.96094Z" fill="currentColor"></path>
  </symbol>
</svg>