<svg width="18" height="18" viewBox="0 0 18 18" fill="none" xmlns="http://www.w3.org/2000/svg">
<path d="M3.90625 18.0078H0.273438V6.32812H3.90625V18.0078ZM2.07031 4.76562C0.9375 4.76562 0 3.78906 0 2.61719C0 1.01562 1.71875 0 3.125 0.820312C3.78906 1.17188 4.17969 1.875 4.17969 2.61719C4.17969 3.78906 3.24219 4.76562 2.07031 4.76562ZM17.4609 18.0078H13.8672V12.3438C13.8672 10.9766 13.8281 9.25781 11.9531 9.25781C10.0781 9.25781 9.80469 10.7031 9.80469 12.2266V18.0078H6.17188V6.32812H9.64844V7.92969H9.6875C10.1953 7.03125 11.3672 6.05469 13.125 6.05469C16.7969 6.05469 17.5 8.47656 17.5 11.6016V18.0078H17.4609Z" fill="#1E2832"/>
</svg>
