<svg width="20" height="18" viewBox="0 0 20 18" fill="none" xmlns="http://www.w3.org/2000/svg">
<path d="M9.53125 1.83594L9.96094 2.30469L10.4297 1.875C11.7188 0.585938 13.5547 0 15.3125 0.3125C18.0078 0.742188 20 3.08594 20 5.82031V6.01562C20 7.65625 19.2969 9.21875 18.125 10.3125L11.0547 16.9141C10.7812 17.1875 10.3906 17.3047 10 17.3047C9.57031 17.3047 9.17969 17.1875 8.90625 16.9141L1.83594 10.3125C0.664062 9.21875 0 7.65625 0 6.01562V5.82031C0 3.08594 1.95312 0.742188 4.64844 0.3125C6.40625 0 8.24219 0.585938 9.53125 1.83594C9.53125 1.875 9.49219 1.83594 9.53125 1.83594ZM9.96094 4.96094L8.20312 3.16406C7.34375 2.34375 6.13281 1.95312 4.96094 2.14844C3.16406 2.46094 1.875 3.98438 1.875 5.82031V6.01562C1.875 7.14844 2.30469 8.20312 3.125 8.94531L10 15.3516L16.8359 8.94531C17.6562 8.20312 18.125 7.14844 18.125 6.01562V5.82031C18.125 3.98438 16.7969 2.46094 15 2.14844C13.8281 1.95312 12.6172 2.34375 11.7578 3.16406L9.96094 4.96094Z" fill="white"/>
</svg>
