<svg width="20" height="17" viewBox="0 0 20 17" fill="none" xmlns="http://www.w3.org/2000/svg">
<path d="M17.9297 4.02344C17.9297 4.21875 17.9297 4.375 17.9297 4.57031C17.9297 10 13.8281 16.2109 6.28906 16.2109C3.94531 16.2109 1.79688 15.5469 0 14.375C0.3125 14.4141 0.625 14.4531 0.976562 14.4531C2.89062 14.4531 4.64844 13.7891 6.05469 12.6953C4.25781 12.6562 2.73438 11.4844 2.22656 9.84375C2.5 9.88281 2.73438 9.92188 3.00781 9.92188C3.35938 9.92188 3.75 9.84375 4.0625 9.76562C2.1875 9.375 0.78125 7.73438 0.78125 5.74219V5.70312C1.32812 6.01562 1.99219 6.17188 2.65625 6.21094C1.52344 5.46875 0.820312 4.21875 0.820312 2.8125C0.820312 2.03125 1.01562 1.32812 1.36719 0.742188C3.39844 3.20312 6.44531 4.84375 9.84375 5.03906C9.76562 4.72656 9.72656 4.41406 9.72656 4.10156C9.72656 1.83594 11.5625 0 13.8281 0C15 0 16.0547 0.46875 16.8359 1.28906C17.7344 1.09375 18.6328 0.742188 19.4141 0.273438C19.1016 1.25 18.4766 2.03125 17.6172 2.53906C18.4375 2.46094 19.2578 2.22656 19.9609 1.91406C19.4141 2.73438 18.7109 3.4375 17.9297 4.02344Z" fill="#1E2832"/>
</svg>
