<svg width="17" height="17" viewBox="0 0 17 17" fill="none" xmlns="http://www.w3.org/2000/svg">
<path d="M15.6875 0.1875C15.9375 0.34375 16.0625 0.625 15.9688 0.90625L13.9688 14.4062C13.9375 14.625 13.8125 14.8438 13.5938 14.9375C13.5 15 13.375 15.0625 13.25 15.0625C13.125 15.0625 13.0312 15.0312 12.9375 15L9.875 13.6875L6.40625 15.9375C6.28125 16 6.125 16.0312 6 16.0312C5.90625 16.0312 5.78125 16 5.65625 15.9688C5.40625 15.8125 5.28125 15.5625 5.28125 15.2812V11.75L0.46875 9.75C0.21875 9.625 0.03125 9.375 0.03125 9.09375C0 8.8125 0.15625 8.53125 0.40625 8.40625L14.9062 0.15625C15.1562 0 15.4688 0.03125 15.6875 0.1875ZM11.5625 3.78125L2.46875 8.9375L5.71875 10.3125L11.5625 3.78125ZM6.75 13.9062L8.1875 13L6.75 12.375V13.9062ZM12.6562 13.2188L14.1562 3.125L7.15625 10.9062L12.6562 13.2188Z" fill="#1E2832"/>
</svg>
