<svg width="18" height="20" viewBox="0 0 18 20" fill="none" xmlns="http://www.w3.org/2000/svg">
<path d="M4.375 4.375C4.375 1.99219 6.32812 0 8.75 0C11.1328 0 13.125 1.99219 13.125 4.375V6.25H15.625C16.6406 6.25 17.5 7.10938 17.5 8.125V16.25C17.5 18.3203 15.8203 20 13.75 20H3.75C1.64062 20 0 18.3203 0 16.25V8.125C0 7.10938 0.820312 6.25 1.875 6.25H4.375V4.375ZM6.25 6.25H11.25V4.375C11.25 3.00781 10.1172 1.875 8.75 1.875C7.34375 1.875 6.25 3.00781 6.25 4.375V6.25ZM5.3125 10C5.82031 10 6.25 9.60938 6.25 9.0625C6.25 8.55469 5.82031 8.125 5.3125 8.125C4.76562 8.125 4.375 8.55469 4.375 9.0625C4.375 9.60938 4.76562 10 5.3125 10ZM12.1875 8.125C11.6406 8.125 11.25 8.55469 11.25 9.0625C11.25 9.60938 11.6406 10 12.1875 10C12.6953 10 13.125 9.60938 13.125 9.0625C13.125 8.55469 12.6953 8.125 12.1875 8.125Z" fill="#1E2832"/>
</svg>
