<svg width="21" height="21" viewBox="0 0 21 21" fill="none" xmlns="http://www.w3.org/2000/svg">
<mask id="path-1-inside-1_2043_394" fill="white">
<path d="M20.1562 17.9297C20.7422 18.5547 20.7422 19.5312 20.1562 20.1562C19.5312 20.7422 18.5547 20.7422 17.9297 20.1562L13.2812 15.4688C11.6797 16.5234 9.72656 17.0703 7.61719 16.7969C4.02344 16.2891 1.13281 13.3594 0.664062 9.80469C0 4.49219 4.49219 0 9.80469 0.664062C13.3594 1.13281 16.2891 4.02344 16.7969 7.61719C17.0703 9.72656 16.5234 11.6797 15.4688 13.2422L20.1562 17.9297ZM3.71094 8.71094C3.71094 11.4844 5.9375 13.7109 8.71094 13.7109C11.4453 13.7109 13.7109 11.4844 13.7109 8.71094C13.7109 5.97656 11.4453 3.71094 8.71094 3.71094C5.9375 3.71094 3.71094 5.97656 3.71094 8.71094Z"/>
</mask>
<path d="M20.1562 17.9297C20.7422 18.5547 20.7422 19.5312 20.1562 20.1562C19.5312 20.7422 18.5547 20.7422 17.9297 20.1562L13.2812 15.4688C11.6797 16.5234 9.72656 17.0703 7.61719 16.7969C4.02344 16.2891 1.13281 13.3594 0.664062 9.80469C0 4.49219 4.49219 0 9.80469 0.664062C13.3594 1.13281 16.2891 4.02344 16.7969 7.61719C17.0703 9.72656 16.5234 11.6797 15.4688 13.2422L20.1562 17.9297ZM3.71094 8.71094C3.71094 11.4844 5.9375 13.7109 8.71094 13.7109C11.4453 13.7109 13.7109 11.4844 13.7109 8.71094C13.7109 5.97656 11.4453 3.71094 8.71094 3.71094C5.9375 3.71094 3.71094 5.97656 3.71094 8.71094Z" fill="white"/>
<path d="M20.1562 17.9297L20.521 17.5877L20.5155 17.5818L20.5098 17.5761L20.1562 17.9297ZM20.1562 20.1562L20.4982 20.521L20.51 20.51L20.521 20.4982L20.1562 20.1562ZM17.9297 20.1562L17.5747 20.5083L17.5811 20.5148L17.5877 20.521L17.9297 20.1562ZM13.2812 15.4688L13.6363 15.1167L13.3481 14.8261L13.0063 15.0512L13.2812 15.4688ZM7.61719 16.7969L7.54723 17.292L7.55291 17.2927L7.61719 16.7969ZM0.664062 9.80469L0.167912 9.86671L0.168354 9.87006L0.664062 9.80469ZM9.80469 0.664062L9.87006 0.168343L9.8667 0.167924L9.80469 0.664062ZM16.7969 7.61719L17.2928 7.55291L17.292 7.54723L16.7969 7.61719ZM15.4688 13.2422L15.0543 12.9625L14.8236 13.3042L15.1152 13.5957L15.4688 13.2422ZM20.1562 17.9297L19.7915 18.2717C20.1971 18.7043 20.1971 19.3816 19.7915 19.8143L20.1562 20.1562L20.521 20.4982C21.2873 19.6809 21.2873 18.405 20.521 17.5877L20.1562 17.9297ZM20.1562 20.1562L19.8143 19.7915C19.3816 20.1971 18.7043 20.1971 18.2717 19.7915L17.9297 20.1562L17.5877 20.521C18.405 21.2873 19.6809 21.2873 20.4982 20.521L20.1562 20.1562ZM17.9297 20.1562L18.2847 19.8042L13.6363 15.1167L13.2812 15.4688L12.9262 15.8208L17.5747 20.5083L17.9297 20.1562ZM13.2812 15.4688L13.0063 15.0512C11.4959 16.0458 9.66191 16.5577 7.68146 16.301L7.61719 16.7969L7.55291 17.2927C9.79122 17.5829 11.8635 17.0011 13.5562 15.8863L13.2812 15.4688ZM7.61719 16.7969L7.68714 16.3018C4.31513 15.8253 1.5991 13.0709 1.15977 9.73932L0.664062 9.80469L0.168354 9.87006C0.666529 13.6479 3.73175 16.7528 7.54723 17.292L7.61719 16.7969ZM0.664062 9.80469L1.1602 9.74267C0.536581 4.75371 4.75371 0.536581 9.74267 1.1602L9.80469 0.664062L9.8667 0.167924C4.23067 -0.536581 -0.536581 4.23067 0.167924 9.8667L0.664062 9.80469ZM9.80469 0.664062L9.73932 1.15977C13.0709 1.5991 15.8253 4.31513 16.3018 7.68714L16.7969 7.61719L17.292 7.54723C16.7528 3.73175 13.6479 0.666529 9.87006 0.168354L9.80469 0.664062ZM16.7969 7.61719L16.301 7.68146C16.5579 9.66301 16.045 11.4948 15.0543 12.9625L15.4688 13.2422L15.8832 13.5219C17.0019 11.8646 17.5827 9.79011 17.2927 7.55291L16.7969 7.61719ZM15.4688 13.2422L15.1152 13.5957L19.8027 18.2832L20.1562 17.9297L20.5098 17.5761L15.8223 12.8886L15.4688 13.2422ZM3.71094 8.71094H3.21094C3.21094 11.7605 5.66136 14.2109 8.71094 14.2109V13.7109V13.2109C6.21364 13.2109 4.21094 11.2082 4.21094 8.71094H3.71094ZM8.71094 13.7109V14.2109C11.7189 14.2109 14.2109 11.7631 14.2109 8.71094H13.7109H13.2109C13.2109 11.2057 11.1717 13.2109 8.71094 13.2109V13.7109ZM13.7109 8.71094H14.2109C14.2109 5.70042 11.7215 3.21094 8.71094 3.21094V3.71094V4.21094C11.1692 4.21094 13.2109 6.2527 13.2109 8.71094H13.7109ZM8.71094 3.71094V3.21094C5.65882 3.21094 3.21094 5.70296 3.21094 8.71094H3.71094H4.21094C4.21094 6.25016 6.21618 4.21094 8.71094 4.21094V3.71094Z" fill="#1E2832" mask="url(#path-1-inside-1_2043_394)"/>
</svg>
