<svg width="120" height="125" viewBox="0 0 120 125" fill="none" xmlns="http://www.w3.org/2000/svg">
<g clip-path="url(#clip0_505_823)">
<path d="M-27.3421 66.1843C-18.6833 63.1495 -10.0177 60.2215 -1.50076 56.7983C6.87816 53.4066 14.8715 49.1348 22.3466 44.0537C36.5744 34.3453 49.1605 22.1262 64.6827 14.3265C72.4206 10.2329 80.965 7.88675 89.7212 7.45135C89.8646 7.46152 90.0016 7.51627 90.1131 7.60806C90.2246 7.69984 90.305 7.82408 90.3431 7.96342C90.3813 8.10276 90.3752 8.25026 90.3258 8.38545C90.2765 8.52064 90.1863 8.63675 90.0677 8.71762L67.4358 19.5708C59.893 23.2063 52.5111 27.0256 44.8792 30.6019C43.8078 31.2204 42.7689 29.4685 43.9088 28.9211C51.4396 25.2648 59.097 21.9228 66.705 18.305L89.3968 7.55561C89.6005 7.90836 89.6187 8.36817 89.7313 8.80115C73.015 9.15613 58.5026 18.7523 46.0615 29.0339C39.2021 34.7095 32.5483 40.5985 25.3069 45.803C18.0929 50.9003 10.3205 55.1557 2.13898 58.4873C-7.30575 62.2965 -16.9678 65.5468 -26.7976 68.2217C-28.0452 68.5823 -28.5179 66.6695 -27.3062 66.2466L-27.3421 66.1843Z" fill="white"/>
<path d="M-25.6704 65.6067C-11.4789 63.6384 0.525747 53.8854 15.2949 54.8206C22.44 55.5565 29.471 57.1854 36.2243 59.6694C43.3151 62.0077 50.2674 64.7559 57.0461 67.9003C64.6577 71.5093 72.0614 75.5484 79.2214 79.9979C79.3888 80.0993 79.5195 80.2521 79.5939 80.4335C79.6684 80.6149 79.6826 80.8152 79.6345 81.0046C79.5865 81.194 79.4786 81.3624 79.3271 81.4847C79.1756 81.6071 78.9885 81.6768 78.7936 81.6835C71.2078 81.5811 63.416 81.5976 56.607 77.8926C49.7981 74.1876 44.8801 67.6201 38.0885 63.8498C37.905 63.7466 37.7695 63.5747 37.7117 63.372C37.6539 63.1693 37.6786 62.9524 37.7803 62.7689C37.882 62.5854 38.0524 62.4505 38.2541 62.3937C38.4557 62.337 38.672 62.3631 38.8555 62.4663C45.3711 66.0916 50.5703 71.5284 56.9657 75.2785C63.3611 79.0286 71.3269 79.7416 78.8749 79.9212C78.7283 80.4762 78.5612 81.0431 78.4266 81.6188C72.1918 77.8481 65.7293 74.4732 59.0775 71.5139C52.329 68.4028 45.4107 65.6813 38.3568 63.3629C31.6362 60.9381 24.7081 59.1488 17.6631 58.0184C10.6768 57.2433 3.61725 58.1426 -2.93499 60.6423C-10.2911 63.174 -17.5316 66.5242 -25.391 66.9948C-26.1562 67.0492 -26.3431 65.7738 -25.5813 65.666L-25.6704 65.6067Z" fill="white"/>
<path d="M7.16724 54.5883C13.4135 56.3179 19.7803 57.563 26.2111 58.3123C32.1795 58.8544 38.1901 58.395 43.9958 56.9531C54.771 54.3011 64.7861 49.2382 75.534 46.4913C81.3758 44.8707 87.4863 44.4268 93.5142 45.1852L93.0281 46.96C77.4771 42.79 60.9797 44.4452 46.6277 51.6155C42.5518 53.6399 38.7318 56.1426 35.2473 59.0713C35.1343 59.1911 34.9968 59.2849 34.844 59.3461C34.6913 59.4074 34.5269 59.4347 34.3622 59.4261C34.1975 59.4176 34.0364 59.3734 33.8898 59.2967C33.7433 59.22 33.6148 59.1125 33.5132 58.9816C33.4116 58.8507 33.3392 58.6994 33.3011 58.5382C33.263 58.377 33.2599 58.2097 33.2922 58.0476C33.3245 57.8856 33.3914 57.7327 33.4883 57.5994C33.5851 57.4661 33.7096 57.3556 33.8533 57.2754C46.9336 47.1915 63.179 42.1055 79.7076 42.9197C84.3587 43.1726 88.9738 43.911 93.4783 45.123C94.6513 45.4418 94.1344 47.0682 92.9922 46.8977C81.7149 45.3021 70.821 49.4614 60.478 53.3855C50.1351 57.3096 39.2004 61.1604 27.7062 60.1881C20.6199 59.3723 13.6161 57.9254 6.77779 55.8645C5.91005 55.6461 6.26355 54.3077 7.1313 54.526L7.16724 54.5883Z" fill="white"/>
<path d="M-26.7485 66.1184C-21.8032 64.824 -16.6233 64.671 -11.5966 65.6706C-6.34082 66.5569 -1.16749 67.8928 3.86667 69.6635C15.2404 73.4721 26.8048 77.0875 37.8048 81.9142C43.6263 84.2785 49.0962 87.4433 54.0567 91.3172C54.6188 91.7674 53.8354 92.5516 53.294 92.0896C48.8883 88.6604 44.0182 85.8815 38.8332 83.8381C33.6828 81.721 28.2861 80.2717 23.0168 78.4722L5.87498 72.5711C1.07232 70.8519 -3.82649 69.4211 -8.7953 68.2863C-11.6598 67.6455 -14.5741 67.2632 -17.5033 67.1442C-20.4154 67.1316 -23.3218 67.3658 -26.1915 67.8443C-26.4053 67.8751 -26.6233 67.8259 -26.8043 67.7062C-26.9853 67.5865 -27.1165 67.4046 -27.1732 67.1949C-27.2298 66.9853 -27.2079 66.7625 -27.1116 66.5689C-27.0153 66.3754 -26.8513 66.2245 -26.6507 66.1449L-26.7485 66.1184Z" fill="white"/>
</g>
<defs>
<clipPath id="clip0_505_823">
<rect width="132.34" height="66.6102" fill="white" transform="matrix(-0.866025 0.5 0.5 0.866025 86.1639 0.624023)"/>
</clipPath>
</defs>
</svg>
